<mxfile host="app.diagrams.net" agent="Mozilla/5.0 (Windows NT 10.0; Win64; x64) AppleWebKit/537.36 (KHTML, like Gecko) Chrome/136.0.0.0 Safari/537.36 Edg/136.0.0.0" version="26.2.14">
  <diagram name="Page-1" id="ObPIO45_PiQr8g9zLOXR">
    <mxGraphModel dx="880" dy="399" grid="1" gridSize="10" guides="1" tooltips="1" connect="1" arrows="1" fold="1" page="1" pageScale="1" pageWidth="850" pageHeight="1100" math="0" shadow="0">
      <root>
        <mxCell id="0" />
        <mxCell id="1" parent="0" />
        <mxCell id="BIHh8B7FmufUokxiezGY-2" value="Volunteer" style="whiteSpace=wrap;html=1;aspect=fixed;" parent="1" vertex="1">
          <mxGeometry x="200" y="10" width="80" height="80" as="geometry" />
        </mxCell>
        <mxCell id="fCMUgm20pQ58N2CfXYkV-22" style="edgeStyle=orthogonalEdgeStyle;rounded=0;orthogonalLoop=1;jettySize=auto;html=1;entryX=0.75;entryY=1;entryDx=0;entryDy=0;" edge="1" parent="1" source="BIHh8B7FmufUokxiezGY-3" target="fCMUgm20pQ58N2CfXYkV-19">
          <mxGeometry relative="1" as="geometry">
            <Array as="points">
              <mxPoint x="580" y="210" />
            </Array>
          </mxGeometry>
        </mxCell>
        <mxCell id="fCMUgm20pQ58N2CfXYkV-26" style="edgeStyle=orthogonalEdgeStyle;rounded=0;orthogonalLoop=1;jettySize=auto;html=1;entryX=0.25;entryY=1;entryDx=0;entryDy=0;" edge="1" parent="1" source="BIHh8B7FmufUokxiezGY-3" target="BIHh8B7FmufUokxiezGY-2">
          <mxGeometry relative="1" as="geometry">
            <Array as="points">
              <mxPoint x="220" y="210" />
            </Array>
          </mxGeometry>
        </mxCell>
        <mxCell id="BIHh8B7FmufUokxiezGY-3" value="Log in to the System" style="rounded=1;whiteSpace=wrap;html=1;" parent="1" vertex="1">
          <mxGeometry x="340" y="170" width="120" height="60" as="geometry" />
        </mxCell>
        <mxCell id="fCMUgm20pQ58N2CfXYkV-2" value="" style="group" vertex="1" connectable="0" parent="1">
          <mxGeometry x="350" y="320" width="100" height="30" as="geometry" />
        </mxCell>
        <mxCell id="BIHh8B7FmufUokxiezGY-1" value="D1" style="html=1;dashed=0;whiteSpace=wrap;shape=mxgraph.dfd.dataStoreID;align=left;spacingLeft=3;points=[[0,0],[0.5,0],[1,0],[0,0.5],[1,0.5],[0,1],[0.5,1],[1,1]];movable=0;resizable=0;rotatable=0;deletable=0;editable=0;locked=1;connectable=0;" parent="fCMUgm20pQ58N2CfXYkV-2" vertex="1">
          <mxGeometry width="100" height="30" as="geometry" />
        </mxCell>
        <mxCell id="fCMUgm20pQ58N2CfXYkV-1" value="Volunteer" style="text;html=1;align=center;verticalAlign=middle;resizable=1;points=[];autosize=1;strokeColor=none;fillColor=none;movable=1;rotatable=1;deletable=1;editable=1;locked=0;connectable=1;" vertex="1" parent="fCMUgm20pQ58N2CfXYkV-2">
          <mxGeometry x="30" width="70" height="30" as="geometry" />
        </mxCell>
        <mxCell id="fCMUgm20pQ58N2CfXYkV-9" value="User_ID&lt;div&gt;User_PIN&lt;/div&gt;" style="text;html=1;align=center;verticalAlign=middle;resizable=0;points=[];autosize=1;strokeColor=none;fillColor=none;" vertex="1" parent="1">
          <mxGeometry x="150" y="110" width="80" height="40" as="geometry" />
        </mxCell>
        <mxCell id="fCMUgm20pQ58N2CfXYkV-11" style="edgeStyle=orthogonalEdgeStyle;rounded=0;orthogonalLoop=1;jettySize=auto;html=1;" edge="1" parent="1">
          <mxGeometry relative="1" as="geometry">
            <mxPoint x="399.66" y="230" as="targetPoint" />
            <mxPoint x="399.66" y="320" as="sourcePoint" />
          </mxGeometry>
        </mxCell>
        <mxCell id="fCMUgm20pQ58N2CfXYkV-12" value="1 {Vol_ID + Vol_FName +&lt;div&gt;Vol_LName + Vol_Email +&lt;div&gt;Vol_Cell + User_ID + User_Pin +&lt;/div&gt;&lt;div&gt;Is_Admin} N&lt;/div&gt;&lt;/div&gt;" style="text;html=1;align=center;verticalAlign=middle;resizable=0;points=[];autosize=1;strokeColor=none;fillColor=none;" vertex="1" parent="1">
          <mxGeometry x="412" y="240" width="200" height="70" as="geometry" />
        </mxCell>
        <mxCell id="fCMUgm20pQ58N2CfXYkV-13" value="Gain access&lt;div&gt;to system&lt;/div&gt;" style="text;html=1;align=center;verticalAlign=middle;resizable=0;points=[];autosize=1;strokeColor=none;fillColor=none;" vertex="1" parent="1">
          <mxGeometry x="250" y="110" width="90" height="40" as="geometry" />
        </mxCell>
        <mxCell id="fCMUgm20pQ58N2CfXYkV-19" value="Administrator" style="whiteSpace=wrap;html=1;aspect=fixed;" vertex="1" parent="1">
          <mxGeometry x="520" y="10" width="80" height="80" as="geometry" />
        </mxCell>
        <mxCell id="fCMUgm20pQ58N2CfXYkV-20" style="edgeStyle=orthogonalEdgeStyle;rounded=0;orthogonalLoop=1;jettySize=auto;html=1;entryX=0.996;entryY=0.402;entryDx=0;entryDy=0;entryPerimeter=0;" edge="1" parent="1" source="fCMUgm20pQ58N2CfXYkV-19" target="BIHh8B7FmufUokxiezGY-3">
          <mxGeometry relative="1" as="geometry">
            <Array as="points">
              <mxPoint x="540" y="194" />
            </Array>
          </mxGeometry>
        </mxCell>
        <mxCell id="fCMUgm20pQ58N2CfXYkV-23" value="User_ID&lt;div&gt;User_PIN&lt;/div&gt;" style="text;html=1;align=center;verticalAlign=middle;resizable=0;points=[];autosize=1;strokeColor=none;fillColor=none;" vertex="1" parent="1">
          <mxGeometry x="470" y="110" width="80" height="40" as="geometry" />
        </mxCell>
        <mxCell id="fCMUgm20pQ58N2CfXYkV-24" value="Gain access to&amp;nbsp;&lt;div&gt;&lt;span style=&quot;background-color: transparent; color: light-dark(rgb(0, 0, 0), rgb(255, 255, 255));&quot;&gt;admin system&lt;/span&gt;&lt;/div&gt;" style="text;html=1;align=center;verticalAlign=middle;resizable=0;points=[];autosize=1;strokeColor=none;fillColor=none;" vertex="1" parent="1">
          <mxGeometry x="570" y="110" width="110" height="40" as="geometry" />
        </mxCell>
        <mxCell id="fCMUgm20pQ58N2CfXYkV-25" style="edgeStyle=orthogonalEdgeStyle;rounded=0;orthogonalLoop=1;jettySize=auto;html=1;entryX=-0.001;entryY=0.365;entryDx=0;entryDy=0;entryPerimeter=0;" edge="1" parent="1" source="BIHh8B7FmufUokxiezGY-2" target="BIHh8B7FmufUokxiezGY-3">
          <mxGeometry relative="1" as="geometry">
            <Array as="points">
              <mxPoint x="260" y="192" />
            </Array>
          </mxGeometry>
        </mxCell>
      </root>
    </mxGraphModel>
  </diagram>
</mxfile>
